M48
; DRILL file {KiCad (6.0.0-0)} date Sunday, October 16, 2022 at 11:18:16 AM
; FORMAT={-:-/ absolute / inch / decimal}
; #@! TF.CreationDate,2022-10-16T11:18:16-07:00
; #@! TF.GenerationSoftware,Kicad,Pcbnew,(6.0.0-0)
; #@! TF.FileFunction,Plated,1,2,PTH
FMAT,2
INCH
; #@! TA.AperFunction,Plated,PTH,ComponentDrill
T1C0.0315
; #@! TA.AperFunction,Plated,PTH,ComponentDrill
T2C0.0394
%
G90
G05
T1
X5.3Y-3.6504
X5.3Y-3.7504
X5.3Y-3.8504
X5.3Y-3.9504
X5.6Y-3.6504
X5.6Y-3.7504
X5.6Y-3.8504
X5.6Y-3.9504
X5.6506Y-3.0504
X5.6506Y-3.1504
X5.6506Y-3.2504
X5.6506Y-3.3504
X5.8406Y-3.6
X5.8406Y-4.0
X5.9506Y-3.0504
X5.9506Y-3.1504
X5.9506Y-3.2504
X5.9506Y-3.3504
X6.1Y-3.6
X6.1Y-4.0
X6.3406Y-3.6
X6.3406Y-4.0
T2
X5.0Y-4.6513
X5.0Y-4.7513
X5.0Y-4.8513
X5.5004Y-4.35
X5.5004Y-4.45
X5.5004Y-4.55
X5.5004Y-4.65
X5.5004Y-4.75
X5.5004Y-4.85
X5.5004Y-4.95
X5.5004Y-5.05
X5.5004Y-5.15
X5.5004Y-5.25
X5.5004Y-5.35
X5.5004Y-5.45
X5.5004Y-5.55
X5.5004Y-5.65
X5.5004Y-5.75
X6.1004Y-4.35
X6.1004Y-4.45
X6.1004Y-4.55
X6.1004Y-4.65
X6.1004Y-4.75
X6.1004Y-4.85
X6.1004Y-4.95
X6.1004Y-5.05
X6.1004Y-5.15
X6.1004Y-5.25
X6.1004Y-5.35
X6.1004Y-5.45
X6.1004Y-5.55
X6.1004Y-5.65
X6.1004Y-5.75
X6.4935Y-2.5545
X6.4935Y-2.6545
X6.4935Y-2.7545
X6.4935Y-2.8545
T0
M30
