%TF.GenerationSoftware,KiCad,Pcbnew,(6.0.0-0)*%
%TF.CreationDate,2022-10-16T11:18:23-07:00*%
%TF.ProjectId,refresh rate reader,72656672-6573-4682-9072-617465207265,rev?*%
%TF.SameCoordinates,Original*%
%TF.FileFunction,Legend,Bot*%
%TF.FilePolarity,Positive*%
%FSLAX46Y46*%
G04 Gerber Fmt 4.6, Leading zero omitted, Abs format (unit mm)*
G04 Created by KiCad (PCBNEW (6.0.0-0)) date 2022-10-16 11:18:23*
%MOMM*%
%LPD*%
G01*
G04 APERTURE LIST*
%ADD10C,0.120000*%
G04 APERTURE END LIST*
%TO.C,kibuzzard-634C4988*%
G36*
X136615333Y-106848331D02*
G01*
X136516655Y-106833694D01*
X136419887Y-106809455D01*
X136325961Y-106775847D01*
X136235781Y-106733196D01*
X136150216Y-106681910D01*
X136070091Y-106622485D01*
X135996175Y-106555492D01*
X135929182Y-106481576D01*
X135869757Y-106401450D01*
X135818471Y-106315886D01*
X135792304Y-106260560D01*
X137045699Y-106260560D01*
X137687049Y-106260560D01*
X137839449Y-106260560D01*
X138480799Y-106260560D01*
X138484768Y-106220872D01*
X138483974Y-106187535D01*
X138476632Y-106111335D01*
X138454605Y-106041485D01*
X138421268Y-105977389D01*
X138379993Y-105918453D01*
X138333161Y-105864081D01*
X138283155Y-105813678D01*
X138233776Y-105766847D01*
X138628436Y-105766847D01*
X138633894Y-105888688D01*
X138650265Y-105993860D01*
X138677550Y-106082363D01*
X138715749Y-106154197D01*
X138782777Y-106224753D01*
X138867443Y-106267086D01*
X138969749Y-106281197D01*
X139072055Y-106267086D01*
X139085107Y-106260560D01*
X139426949Y-106260560D01*
X140068299Y-106260560D01*
X140072268Y-106220872D01*
X140071474Y-106187535D01*
X140064132Y-106111335D01*
X140042105Y-106041485D01*
X140008768Y-105977389D01*
X139967493Y-105918453D01*
X139920661Y-105864081D01*
X139870655Y-105813678D01*
X139820649Y-105766252D01*
X139773818Y-105720810D01*
X139699205Y-105635085D01*
X139669836Y-105550947D01*
X139706349Y-105458078D01*
X139798424Y-105425534D01*
X139895262Y-105447760D01*
X139995274Y-105522372D01*
X140092111Y-105385847D01*
X140023651Y-105327903D01*
X139945268Y-105287422D01*
X139862122Y-105263610D01*
X139779374Y-105255672D01*
X139663486Y-105273134D01*
X139565061Y-105325522D01*
X139496799Y-105413628D01*
X139471399Y-105536660D01*
X139490449Y-105634291D01*
X139541249Y-105725572D01*
X139612687Y-105811297D01*
X139693649Y-105890672D01*
X139741274Y-105935916D01*
X139792074Y-105989891D01*
X139832555Y-106046247D01*
X139849224Y-106098635D01*
X139426949Y-106098635D01*
X139426949Y-106260560D01*
X139085107Y-106260560D01*
X139156721Y-106224753D01*
X139223749Y-106154197D01*
X139261948Y-106082363D01*
X139289233Y-105993860D01*
X139305604Y-105888688D01*
X139311062Y-105766847D01*
X139305505Y-105646395D01*
X139288836Y-105542216D01*
X139261055Y-105454308D01*
X139222161Y-105382672D01*
X139154605Y-105312116D01*
X139070467Y-105269783D01*
X138969749Y-105255672D01*
X138867443Y-105269695D01*
X138782777Y-105311764D01*
X138715749Y-105381878D01*
X138677550Y-105453266D01*
X138650265Y-105541224D01*
X138633894Y-105645751D01*
X138628436Y-105766847D01*
X138233776Y-105766847D01*
X138233149Y-105766252D01*
X138186318Y-105720810D01*
X138111705Y-105635085D01*
X138082336Y-105550947D01*
X138118849Y-105458078D01*
X138210924Y-105425534D01*
X138307761Y-105447760D01*
X138407774Y-105522372D01*
X138504611Y-105385847D01*
X138436151Y-105327903D01*
X138357768Y-105287422D01*
X138274622Y-105263610D01*
X138191874Y-105255672D01*
X138075986Y-105273134D01*
X137977561Y-105325522D01*
X137909299Y-105413628D01*
X137883899Y-105536660D01*
X137902949Y-105634291D01*
X137953749Y-105725572D01*
X138025187Y-105811297D01*
X138106149Y-105890672D01*
X138153774Y-105935916D01*
X138204574Y-105989891D01*
X138245055Y-106046247D01*
X138261724Y-106098635D01*
X137839449Y-106098635D01*
X137839449Y-106260560D01*
X137687049Y-106260560D01*
X137691018Y-106220872D01*
X137690224Y-106187535D01*
X137682882Y-106111335D01*
X137660855Y-106041485D01*
X137627518Y-105977389D01*
X137586243Y-105918453D01*
X137539411Y-105864081D01*
X137489405Y-105813678D01*
X137439399Y-105766252D01*
X137392568Y-105720810D01*
X137317955Y-105635085D01*
X137288586Y-105550947D01*
X137325099Y-105458078D01*
X137417174Y-105425534D01*
X137514012Y-105447760D01*
X137614024Y-105522372D01*
X137710861Y-105385847D01*
X137642401Y-105327903D01*
X137564018Y-105287422D01*
X137480872Y-105263610D01*
X137398124Y-105255672D01*
X137282236Y-105273134D01*
X137183811Y-105325522D01*
X137115549Y-105413628D01*
X137090149Y-105536660D01*
X137109199Y-105634291D01*
X137159999Y-105725572D01*
X137231437Y-105811297D01*
X137312399Y-105890672D01*
X137360024Y-105935916D01*
X137410824Y-105989891D01*
X137451305Y-106046247D01*
X137467974Y-106098635D01*
X137045699Y-106098635D01*
X137045699Y-106260560D01*
X135792304Y-106260560D01*
X135775819Y-106225706D01*
X135742212Y-106131780D01*
X135717973Y-106035012D01*
X135703336Y-105936334D01*
X135698441Y-105836697D01*
X135703336Y-105737060D01*
X135717973Y-105638382D01*
X135742212Y-105541614D01*
X135775819Y-105447688D01*
X135818471Y-105357508D01*
X135869757Y-105271944D01*
X135929182Y-105191818D01*
X135966270Y-105150897D01*
X140234986Y-105150897D01*
X140676312Y-106522497D01*
X140879511Y-106522497D01*
X140692759Y-105946235D01*
X141025561Y-105946235D01*
X141043818Y-106062122D01*
X141100174Y-106170072D01*
X141197011Y-106250241D01*
X141261305Y-106273458D01*
X141336711Y-106281197D01*
X141438047Y-106269820D01*
X141460802Y-106260560D01*
X141812961Y-106260560D01*
X142409861Y-106260560D01*
X142409861Y-106098635D01*
X142203486Y-106098635D01*
X142203486Y-105549360D01*
X142305086Y-105605716D01*
X142401924Y-105644610D01*
X142465424Y-105482685D01*
X142382874Y-105446172D01*
X142293974Y-105396959D01*
X142209836Y-105339810D01*
X142141574Y-105277897D01*
X142008224Y-105277897D01*
X142008224Y-106098635D01*
X141812961Y-106098635D01*
X141812961Y-106260560D01*
X141460802Y-106260560D01*
X141521920Y-106235689D01*
X141588330Y-106178803D01*
X141636396Y-106097753D01*
X141665236Y-105991125D01*
X141674849Y-105858922D01*
X141664332Y-105724381D01*
X141632780Y-105606510D01*
X141581782Y-105505703D01*
X141512924Y-105422360D01*
X141427199Y-105356875D01*
X141325599Y-105309647D01*
X141210108Y-105281072D01*
X141082711Y-105271547D01*
X141071599Y-105438235D01*
X141195424Y-105450935D01*
X141306549Y-105488241D01*
X141394655Y-105555710D01*
X141449424Y-105658897D01*
X141390686Y-105639053D01*
X141339886Y-105631910D01*
X141260710Y-105638259D01*
X141194630Y-105657310D01*
X141096999Y-105725572D01*
X141042230Y-105825585D01*
X141025561Y-105946235D01*
X140692759Y-105946235D01*
X140435011Y-105150897D01*
X142616236Y-105150897D01*
X143057561Y-106522497D01*
X143260761Y-106522497D01*
X143015874Y-105766847D01*
X143390936Y-105766847D01*
X143396394Y-105888688D01*
X143412765Y-105993860D01*
X143440050Y-106082363D01*
X143478249Y-106154197D01*
X143545277Y-106224753D01*
X143629943Y-106267086D01*
X143732249Y-106281197D01*
X143834555Y-106267086D01*
X143847607Y-106260560D01*
X144194211Y-106260560D01*
X144791111Y-106260560D01*
X145810286Y-106260560D01*
X146005549Y-106260560D01*
X146005549Y-105865272D01*
X146011502Y-105775181D01*
X146029361Y-105714460D01*
X146119849Y-105668422D01*
X146173030Y-105674772D01*
X146215099Y-105685885D01*
X146215099Y-106260560D01*
X146410361Y-106260560D01*
X146410361Y-106236747D01*
X146554824Y-106236747D01*
X146671505Y-106268497D01*
X146792949Y-106278022D01*
X146913599Y-106266910D01*
X146992620Y-106228810D01*
X147356511Y-106228810D01*
X147470018Y-106267703D01*
X147567649Y-106278022D01*
X147637697Y-106272466D01*
X147678943Y-106260560D01*
X148143911Y-106260560D01*
X148302661Y-106260560D01*
X148302661Y-105804947D01*
X148308218Y-105733510D01*
X148322505Y-105692235D01*
X148343143Y-105673185D01*
X148367749Y-105668422D01*
X148397911Y-105670803D01*
X148426486Y-105679535D01*
X148418549Y-105746210D01*
X148415374Y-105827172D01*
X148415374Y-105976397D01*
X148574124Y-105976397D01*
X148574124Y-105804947D01*
X148589205Y-105698585D01*
X148637624Y-105668422D01*
X148660643Y-105670010D01*
X148686836Y-105674772D01*
X148686836Y-106260560D01*
X148845586Y-106260560D01*
X148845586Y-106054185D01*
X148983699Y-106054185D01*
X149001162Y-106141497D01*
X149059105Y-106212935D01*
X149164674Y-106260560D01*
X149237302Y-106273656D01*
X149325011Y-106278022D01*
X149414705Y-106272466D01*
X149490111Y-106255797D01*
X149599649Y-106216110D01*
X149569487Y-106052597D01*
X149451218Y-106093872D01*
X149323424Y-106112922D01*
X149213886Y-106102603D01*
X149175787Y-106060535D01*
X149187693Y-106025610D01*
X149221030Y-106001003D01*
X149270243Y-105981160D01*
X149328186Y-105962110D01*
X149415499Y-105932741D01*
X149496462Y-105890672D01*
X149508378Y-105877972D01*
X149740936Y-105877972D01*
X149741730Y-105917660D01*
X149744111Y-105950997D01*
X150228299Y-105950997D01*
X150213218Y-106016283D01*
X150167974Y-106066091D01*
X150098918Y-106097642D01*
X150012399Y-106108159D01*
X149900480Y-106095460D01*
X149810786Y-106070060D01*
X149783799Y-106236747D01*
X149891749Y-106266116D01*
X150020336Y-106278022D01*
X150110626Y-106271870D01*
X150159881Y-106260560D01*
X150499761Y-106260560D01*
X150723599Y-106260560D01*
X150773605Y-106170866D01*
X150839486Y-106072441D01*
X150910130Y-105980366D01*
X150976011Y-105908135D01*
X150976011Y-106260560D01*
X151172861Y-106260560D01*
X151172861Y-106228810D01*
X151325261Y-106228810D01*
X151438768Y-106267703D01*
X151536399Y-106278022D01*
X151606447Y-106272466D01*
X151647693Y-106260560D01*
X152112662Y-106260560D01*
X152271412Y-106260560D01*
X152271412Y-105804947D01*
X152276968Y-105733510D01*
X152291255Y-105692235D01*
X152311893Y-105673185D01*
X152336499Y-105668422D01*
X152366661Y-105670803D01*
X152395237Y-105679535D01*
X152387299Y-105746210D01*
X152384124Y-105827172D01*
X152384124Y-105976397D01*
X152542874Y-105976397D01*
X152542874Y-105804947D01*
X152557955Y-105698585D01*
X152606374Y-105668422D01*
X152629393Y-105670010D01*
X152655586Y-105674772D01*
X152655586Y-106260560D01*
X152814336Y-106260560D01*
X152814336Y-106054185D01*
X152952449Y-106054185D01*
X152969912Y-106141497D01*
X153027855Y-106212935D01*
X153133424Y-106260560D01*
X153206052Y-106273656D01*
X153293761Y-106278022D01*
X153383455Y-106272466D01*
X153458861Y-106255797D01*
X153533346Y-106228810D01*
X153706511Y-106228810D01*
X153820018Y-106267703D01*
X153917649Y-106278022D01*
X153987697Y-106272466D01*
X154045443Y-106255797D01*
X154127993Y-106191503D01*
X154171649Y-106089110D01*
X154181174Y-106024419D01*
X154184349Y-105950997D01*
X154184349Y-105885909D01*
X154492324Y-105885909D01*
X154498674Y-105970642D01*
X154517724Y-106047041D01*
X154548283Y-106114311D01*
X154589161Y-106171660D01*
X154639763Y-106218094D01*
X154699493Y-106252622D01*
X154767557Y-106274053D01*
X154843162Y-106281197D01*
X154918766Y-106274053D01*
X154961619Y-106260560D01*
X155335286Y-106260560D01*
X155530549Y-106260560D01*
X155530549Y-105865272D01*
X155536502Y-105775181D01*
X155554362Y-105714460D01*
X155644849Y-105668422D01*
X155698030Y-105674772D01*
X155740099Y-105685885D01*
X155740099Y-106260560D01*
X155935362Y-106260560D01*
X155935362Y-105514435D01*
X156052837Y-105514435D01*
X156062411Y-105621591D01*
X156073672Y-105725572D01*
X156086620Y-105826378D01*
X156101255Y-105924010D01*
X156122687Y-106046776D01*
X156145705Y-106158960D01*
X156170312Y-106260560D01*
X156317949Y-106260560D01*
X156350493Y-106170072D01*
X156379068Y-106089903D01*
X156406055Y-106008941D01*
X156433836Y-105916072D01*
X156462411Y-106007353D01*
X156488605Y-106087522D01*
X156516386Y-106168485D01*
X156551312Y-106260560D01*
X156698949Y-106260560D01*
X156717404Y-106186939D01*
X156720316Y-106173247D01*
X156879924Y-106173247D01*
X156979143Y-106199441D01*
X157076774Y-106208172D01*
X157188693Y-106189916D01*
X157278386Y-106132766D01*
X157337918Y-106031166D01*
X157353991Y-105961514D01*
X157359349Y-105877972D01*
X157347443Y-105752560D01*
X157306961Y-105650166D01*
X157233143Y-105581110D01*
X157121224Y-105555710D01*
X157046612Y-105563647D01*
X157046612Y-105538247D01*
X157084712Y-105435853D01*
X157195837Y-105393784D01*
X157295055Y-105416009D01*
X157376018Y-105493797D01*
X157406577Y-105558686D01*
X157429993Y-105642228D01*
X157444876Y-105747202D01*
X157449836Y-105876385D01*
X157445669Y-105981160D01*
X157433168Y-106073235D01*
X157410546Y-106152014D01*
X157376018Y-106216903D01*
X157328790Y-106267902D01*
X157268068Y-106305010D01*
X157192463Y-106327631D01*
X157100587Y-106335172D01*
X156983112Y-106327235D01*
X156927549Y-106314535D01*
X156910087Y-106452647D01*
X156959299Y-106462966D01*
X157003749Y-106469316D01*
X157048993Y-106473285D01*
X157100587Y-106474872D01*
X157201790Y-106467728D01*
X157295849Y-106446297D01*
X157380185Y-106407205D01*
X157452218Y-106347078D01*
X157511154Y-106264925D01*
X157556199Y-106159753D01*
X157577366Y-106075351D01*
X157590066Y-105977720D01*
X157594299Y-105866860D01*
X157590683Y-105758645D01*
X157579835Y-105662601D01*
X157561755Y-105578728D01*
X157523457Y-105473160D01*
X157473649Y-105389816D01*
X157414118Y-105327903D01*
X157346649Y-105286628D01*
X157273227Y-105263411D01*
X157195837Y-105255672D01*
X157073599Y-105275516D01*
X156973586Y-105338222D01*
X156935090Y-105387633D01*
X156905324Y-105450141D01*
X156886274Y-105526539D01*
X156879924Y-105617622D01*
X156879924Y-106173247D01*
X156720316Y-106173247D01*
X156734668Y-106105778D01*
X156750741Y-106018069D01*
X156765624Y-105924803D01*
X156779118Y-105826974D01*
X156791024Y-105725572D01*
X156801740Y-105621194D01*
X156811661Y-105514435D01*
X156644974Y-105514435D01*
X156640652Y-105605804D01*
X156636155Y-105695762D01*
X156631480Y-105784310D01*
X156625395Y-105873033D01*
X156616664Y-105963521D01*
X156605286Y-106055772D01*
X156569568Y-105943853D01*
X156542580Y-105845428D01*
X156520355Y-105754941D01*
X156498924Y-105665247D01*
X156357637Y-105665247D01*
X156337793Y-105754941D01*
X156315568Y-105845428D01*
X156290168Y-105943853D01*
X156257624Y-106055772D01*
X156248893Y-105984334D01*
X156241749Y-105916072D01*
X156235994Y-105849595D01*
X156231430Y-105783516D01*
X156225080Y-105651753D01*
X156222501Y-105584483D01*
X156219524Y-105514435D01*
X156052837Y-105514435D01*
X155935362Y-105514435D01*
X155935362Y-105192172D01*
X155740099Y-105158835D01*
X155740099Y-105520784D01*
X155682949Y-105505703D01*
X155624211Y-105498560D01*
X155548408Y-105504711D01*
X155486099Y-105523166D01*
X155397199Y-105593016D01*
X155349574Y-105700966D01*
X155338858Y-105767045D01*
X155335286Y-105839872D01*
X155335286Y-106260560D01*
X154961619Y-106260560D01*
X154986830Y-106252622D01*
X155046758Y-106218094D01*
X155097955Y-106171660D01*
X155139429Y-106114311D01*
X155170187Y-106047041D01*
X155189237Y-105970642D01*
X155195587Y-105885909D01*
X155189038Y-105802367D01*
X155169393Y-105726366D01*
X155138040Y-105659294D01*
X155096368Y-105602541D01*
X155044972Y-105556900D01*
X154984449Y-105523166D01*
X154916583Y-105502330D01*
X154843162Y-105495385D01*
X154768747Y-105502330D01*
X154701080Y-105523166D01*
X154641152Y-105556900D01*
X154589955Y-105602541D01*
X154548482Y-105659294D01*
X154517724Y-105726366D01*
X154498674Y-105802367D01*
X154492324Y-105885909D01*
X154184349Y-105885909D01*
X154184349Y-105676360D01*
X154390724Y-105676360D01*
X154390724Y-105514435D01*
X153989086Y-105514435D01*
X153989086Y-105976397D01*
X153964480Y-106075616D01*
X153882724Y-106108159D01*
X153817637Y-106101016D01*
X153731912Y-106071647D01*
X153706511Y-106228810D01*
X153533346Y-106228810D01*
X153568399Y-106216110D01*
X153538236Y-106052597D01*
X153419968Y-106093872D01*
X153292174Y-106112922D01*
X153182636Y-106102603D01*
X153144537Y-106060535D01*
X153156443Y-106025610D01*
X153189780Y-106001003D01*
X153238993Y-105981160D01*
X153296936Y-105962110D01*
X153384249Y-105932741D01*
X153465211Y-105890672D01*
X153525536Y-105826378D01*
X153549349Y-105728747D01*
X153531093Y-105639053D01*
X153473943Y-105564441D01*
X153374724Y-105513641D01*
X153308446Y-105499949D01*
X153230261Y-105495385D01*
X153159816Y-105498163D01*
X153094530Y-105506497D01*
X152985786Y-105538247D01*
X153015949Y-105703347D01*
X153100087Y-105677153D01*
X153228674Y-105658897D01*
X153329480Y-105677153D01*
X153355674Y-105716047D01*
X153343768Y-105747003D01*
X153312018Y-105771610D01*
X153265980Y-105793041D01*
X153209624Y-105812885D01*
X153120724Y-105844635D01*
X153037380Y-105888291D01*
X152976261Y-105954966D01*
X152952449Y-106054185D01*
X152814336Y-106054185D01*
X152814336Y-105543009D01*
X152692099Y-105516022D01*
X152585736Y-105506497D01*
X152511918Y-105516816D01*
X152455561Y-105550947D01*
X152392061Y-105519991D01*
X152315861Y-105506497D01*
X152214261Y-105525547D01*
X152151555Y-105582697D01*
X152120599Y-105678741D01*
X152114646Y-105741645D01*
X152112662Y-105814472D01*
X152112662Y-106260560D01*
X151647693Y-106260560D01*
X151664193Y-106255797D01*
X151746743Y-106191503D01*
X151790399Y-106089110D01*
X151799924Y-106024419D01*
X151803099Y-105950997D01*
X151803099Y-105676360D01*
X152009474Y-105676360D01*
X152009474Y-105514435D01*
X151607836Y-105514435D01*
X151607836Y-105976397D01*
X151583230Y-106075616D01*
X151501474Y-106108159D01*
X151436386Y-106101016D01*
X151350661Y-106071647D01*
X151325261Y-106228810D01*
X151172861Y-106228810D01*
X151172861Y-105300122D01*
X151615774Y-105300122D01*
X151652287Y-105390610D01*
X151739599Y-105423947D01*
X151826118Y-105390610D01*
X151861836Y-105300122D01*
X153997024Y-105300122D01*
X154033536Y-105390610D01*
X154120849Y-105423947D01*
X154207368Y-105390610D01*
X154243086Y-105300122D01*
X154207368Y-105208047D01*
X154120849Y-105174709D01*
X154033536Y-105208047D01*
X153997024Y-105300122D01*
X151861836Y-105300122D01*
X151826118Y-105208047D01*
X151739599Y-105174709D01*
X151652287Y-105208047D01*
X151615774Y-105300122D01*
X151172861Y-105300122D01*
X151172861Y-105192172D01*
X150976011Y-105158835D01*
X150976011Y-105809710D01*
X150918068Y-105739066D01*
X150860918Y-105662072D01*
X150807736Y-105585078D01*
X150763287Y-105514435D01*
X150528336Y-105514435D01*
X150593424Y-105593810D01*
X150668830Y-105681122D01*
X150746618Y-105766847D01*
X150817261Y-105843047D01*
X150731536Y-105934328D01*
X150685896Y-105988502D01*
X150641049Y-106044660D01*
X150598385Y-106101810D01*
X150559293Y-106158960D01*
X150499761Y-106260560D01*
X150159881Y-106260560D01*
X150190993Y-106253416D01*
X150260843Y-106222856D01*
X150319580Y-106180391D01*
X150366610Y-106126217D01*
X150401336Y-106060535D01*
X150422768Y-105983144D01*
X150429911Y-105893847D01*
X150422371Y-105801375D01*
X150399749Y-105720810D01*
X150364824Y-105652349D01*
X150320374Y-105596191D01*
X150267590Y-105552336D01*
X150207661Y-105520784D01*
X150143368Y-105501734D01*
X150077486Y-105495385D01*
X149976239Y-105506232D01*
X149892631Y-105538776D01*
X149826661Y-105593016D01*
X149779036Y-105668069D01*
X149750462Y-105763055D01*
X149740936Y-105877972D01*
X149508378Y-105877972D01*
X149556786Y-105826378D01*
X149580599Y-105728747D01*
X149562343Y-105639053D01*
X149505193Y-105564441D01*
X149405974Y-105513641D01*
X149339696Y-105499949D01*
X149261511Y-105495385D01*
X149191066Y-105498163D01*
X149125780Y-105506497D01*
X149017036Y-105538247D01*
X149047199Y-105703347D01*
X149131336Y-105677153D01*
X149259924Y-105658897D01*
X149360730Y-105677153D01*
X149386924Y-105716047D01*
X149375018Y-105747003D01*
X149343268Y-105771610D01*
X149297230Y-105793041D01*
X149240874Y-105812885D01*
X149151974Y-105844635D01*
X149068630Y-105888291D01*
X149007512Y-105954966D01*
X148983699Y-106054185D01*
X148845586Y-106054185D01*
X148845586Y-105543009D01*
X148723349Y-105516022D01*
X148616987Y-105506497D01*
X148543168Y-105516816D01*
X148486811Y-105550947D01*
X148423311Y-105519991D01*
X148347111Y-105506497D01*
X148245511Y-105525547D01*
X148182805Y-105582697D01*
X148151849Y-105678741D01*
X148145896Y-105741645D01*
X148143911Y-105814472D01*
X148143911Y-106260560D01*
X147678943Y-106260560D01*
X147695443Y-106255797D01*
X147777993Y-106191503D01*
X147821649Y-106089110D01*
X147831174Y-106024419D01*
X147834349Y-105950997D01*
X147834349Y-105676360D01*
X148040724Y-105676360D01*
X148040724Y-105514435D01*
X147639086Y-105514435D01*
X147639086Y-105976397D01*
X147614480Y-106075616D01*
X147532724Y-106108159D01*
X147467636Y-106101016D01*
X147381911Y-106071647D01*
X147356511Y-106228810D01*
X146992620Y-106228810D01*
X147002499Y-106224047D01*
X147058061Y-106134353D01*
X147072349Y-106067480D01*
X147077112Y-105982747D01*
X147077112Y-105676360D01*
X147246974Y-105676360D01*
X147246974Y-105514435D01*
X147077112Y-105514435D01*
X147077112Y-105327109D01*
X146911136Y-105300122D01*
X147647024Y-105300122D01*
X147683536Y-105390610D01*
X147770849Y-105423947D01*
X147857368Y-105390610D01*
X147893086Y-105300122D01*
X147857368Y-105208047D01*
X147770849Y-105174709D01*
X147683536Y-105208047D01*
X147647024Y-105300122D01*
X146911136Y-105300122D01*
X146881849Y-105295360D01*
X146881849Y-105514435D01*
X146569111Y-105514435D01*
X146569111Y-105676360D01*
X146881849Y-105676360D01*
X146881849Y-105977985D01*
X146873912Y-106044660D01*
X146851686Y-106084347D01*
X146816761Y-106103397D01*
X146770724Y-106108159D01*
X146720718Y-106106572D01*
X146676268Y-106101016D01*
X146631818Y-106089110D01*
X146581812Y-106068472D01*
X146554824Y-106236747D01*
X146410361Y-106236747D01*
X146410361Y-105192172D01*
X146215099Y-105158835D01*
X146215099Y-105520784D01*
X146157949Y-105505703D01*
X146099211Y-105498560D01*
X146023408Y-105504711D01*
X145961099Y-105523166D01*
X145872199Y-105593016D01*
X145824574Y-105700966D01*
X145813858Y-105767045D01*
X145810286Y-105839872D01*
X145810286Y-106260560D01*
X144791111Y-106260560D01*
X144791111Y-106098635D01*
X144584736Y-106098635D01*
X144584736Y-105549360D01*
X144686336Y-105605716D01*
X144783174Y-105644610D01*
X144846674Y-105482685D01*
X144764124Y-105446172D01*
X144675224Y-105396959D01*
X144591086Y-105339810D01*
X144522824Y-105277897D01*
X144389474Y-105277897D01*
X144389474Y-106098635D01*
X144194211Y-106098635D01*
X144194211Y-106260560D01*
X143847607Y-106260560D01*
X143919221Y-106224753D01*
X143986249Y-106154197D01*
X144024448Y-106082363D01*
X144051733Y-105993860D01*
X144068104Y-105888688D01*
X144073561Y-105766847D01*
X144068005Y-105646395D01*
X144051336Y-105542216D01*
X144023555Y-105454308D01*
X143984661Y-105382672D01*
X143917105Y-105312116D01*
X143832967Y-105269783D01*
X143732249Y-105255672D01*
X143629943Y-105269695D01*
X143545277Y-105311764D01*
X143478249Y-105381878D01*
X143440050Y-105453266D01*
X143412765Y-105541224D01*
X143396394Y-105645751D01*
X143390936Y-105766847D01*
X143015874Y-105766847D01*
X142816261Y-105150897D01*
X142616236Y-105150897D01*
X140435011Y-105150897D01*
X140234986Y-105150897D01*
X135966270Y-105150897D01*
X135996175Y-105117902D01*
X136070091Y-105050909D01*
X136150216Y-104991484D01*
X136235781Y-104940198D01*
X136325961Y-104897547D01*
X136419887Y-104863939D01*
X136516655Y-104839700D01*
X136615333Y-104825063D01*
X136714970Y-104820168D01*
X157925028Y-104820168D01*
X158024665Y-104825063D01*
X158123343Y-104839700D01*
X158220111Y-104863939D01*
X158314037Y-104897547D01*
X158404217Y-104940198D01*
X158489782Y-104991484D01*
X158569907Y-105050909D01*
X158643823Y-105117902D01*
X158710816Y-105191818D01*
X158770241Y-105271944D01*
X158821527Y-105357508D01*
X158864179Y-105447688D01*
X158897786Y-105541614D01*
X158922025Y-105638382D01*
X158936662Y-105737060D01*
X158941557Y-105836697D01*
X158936662Y-105936334D01*
X158922025Y-106035012D01*
X158897786Y-106131780D01*
X158864179Y-106225706D01*
X158821527Y-106315886D01*
X158770241Y-106401450D01*
X158710816Y-106481576D01*
X158643823Y-106555492D01*
X158569907Y-106622485D01*
X158489782Y-106681910D01*
X158404217Y-106733196D01*
X158314037Y-106775847D01*
X158220111Y-106809455D01*
X158123343Y-106833694D01*
X158024665Y-106848331D01*
X157925028Y-106853226D01*
X136714970Y-106853226D01*
X136615333Y-106848331D01*
G37*
G36*
X143609218Y-106024816D02*
G01*
X143585846Y-105956994D01*
X143571823Y-105871005D01*
X143567149Y-105766847D01*
X143567867Y-105750972D01*
X143643349Y-105750972D01*
X143667955Y-105824791D01*
X143730661Y-105855747D01*
X143795749Y-105824791D01*
X143819561Y-105750972D01*
X143795749Y-105676360D01*
X143730661Y-105644610D01*
X143667955Y-105676360D01*
X143643349Y-105750972D01*
X143567867Y-105750972D01*
X143571823Y-105663571D01*
X143585846Y-105578111D01*
X143609218Y-105510466D01*
X143661010Y-105444386D01*
X143732249Y-105422360D01*
X143802496Y-105444386D01*
X143854486Y-105510466D01*
X143878299Y-105578111D01*
X143892586Y-105663571D01*
X143897349Y-105766847D01*
X143892586Y-105871005D01*
X143878299Y-105956994D01*
X143854486Y-106024816D01*
X143802496Y-106090895D01*
X143732249Y-106112922D01*
X143730661Y-106112431D01*
X143661010Y-106090895D01*
X143609218Y-106024816D01*
G37*
G36*
X138846718Y-106024816D02*
G01*
X138823346Y-105956994D01*
X138809323Y-105871005D01*
X138804649Y-105766847D01*
X138805367Y-105750972D01*
X138880849Y-105750972D01*
X138905455Y-105824791D01*
X138968161Y-105855747D01*
X139033249Y-105824791D01*
X139057061Y-105750972D01*
X139033249Y-105676360D01*
X138968161Y-105644610D01*
X138905455Y-105676360D01*
X138880849Y-105750972D01*
X138805367Y-105750972D01*
X138809323Y-105663571D01*
X138823346Y-105578111D01*
X138846718Y-105510466D01*
X138898510Y-105444386D01*
X138969749Y-105422360D01*
X139039996Y-105444386D01*
X139091986Y-105510466D01*
X139115799Y-105578111D01*
X139130086Y-105663571D01*
X139134849Y-105766847D01*
X139130086Y-105871005D01*
X139115799Y-105956994D01*
X139091986Y-106024816D01*
X139039996Y-106090895D01*
X138969749Y-106112922D01*
X138968161Y-106112431D01*
X138898510Y-106090895D01*
X138846718Y-106024816D01*
G37*
G36*
X154910035Y-105680527D02*
G01*
X154958255Y-105726366D01*
X154987426Y-105797208D01*
X154997149Y-105887497D01*
X154988219Y-105977985D01*
X154961430Y-106049422D01*
X154914797Y-106095856D01*
X154846336Y-106111335D01*
X154779463Y-106095856D01*
X154731243Y-106049422D01*
X154702072Y-105977985D01*
X154692349Y-105887497D01*
X154701279Y-105797208D01*
X154728068Y-105726366D01*
X154774701Y-105680527D01*
X154843162Y-105665247D01*
X154910035Y-105680527D01*
G37*
G36*
X141427199Y-105800185D02*
G01*
X141479586Y-105817647D01*
X141481968Y-105846222D01*
X141482761Y-105876385D01*
X141476411Y-105964491D01*
X141454186Y-106039897D01*
X141410530Y-106093078D01*
X141341474Y-106112922D01*
X141284324Y-106097047D01*
X141245430Y-106057360D01*
X141223205Y-106004972D01*
X141216061Y-105949410D01*
X141249399Y-105834316D01*
X141295040Y-105803955D01*
X141365286Y-105793835D01*
X141427199Y-105800185D01*
G37*
G36*
X157141862Y-105731128D02*
G01*
X157172024Y-105766053D01*
X157187899Y-105814472D01*
X157192662Y-105868447D01*
X157188693Y-105930360D01*
X157173611Y-105987510D01*
X157142655Y-106029578D01*
X157091062Y-106046247D01*
X157046612Y-106041485D01*
X157046612Y-105723985D01*
X157070424Y-105719222D01*
X157092649Y-105717635D01*
X157141862Y-105731128D01*
G37*
G36*
X150140193Y-105671597D02*
G01*
X150186230Y-105706522D01*
X150214805Y-105757322D01*
X150228299Y-105816060D01*
X149929849Y-105816060D01*
X149937786Y-105758116D01*
X149963187Y-105708110D01*
X150007636Y-105672391D01*
X150074311Y-105658897D01*
X150140193Y-105671597D01*
G37*
%TO.C,kibuzzard-634C44DF*%
G36*
X144625515Y-75863986D02*
G01*
X144543635Y-75851840D01*
X144463339Y-75831727D01*
X144385402Y-75803841D01*
X144310573Y-75768449D01*
X144239573Y-75725894D01*
X144173086Y-75676584D01*
X144111753Y-75620995D01*
X144056164Y-75559661D01*
X144024287Y-75516681D01*
X145038921Y-75516681D01*
X145635821Y-75516681D01*
X145635821Y-75354756D01*
X145429446Y-75354756D01*
X145429446Y-75022968D01*
X145823146Y-75022968D01*
X145828603Y-75144809D01*
X145844974Y-75249981D01*
X145872259Y-75338484D01*
X145910458Y-75410318D01*
X145977486Y-75480874D01*
X146062153Y-75523207D01*
X146164458Y-75537318D01*
X146266764Y-75523207D01*
X146279816Y-75516681D01*
X146626421Y-75516681D01*
X147223321Y-75516681D01*
X147223321Y-75354756D01*
X147016946Y-75354756D01*
X147016946Y-74805481D01*
X147118546Y-74861837D01*
X147215383Y-74900731D01*
X147278883Y-74738806D01*
X147196334Y-74702293D01*
X147184863Y-74695943D01*
X147394771Y-74695943D01*
X147653534Y-74695943D01*
X147653534Y-75516681D01*
X147850384Y-75516681D01*
X147850384Y-74851518D01*
X148193284Y-74851518D01*
X148204837Y-74958146D01*
X148239497Y-75043077D01*
X148297265Y-75106312D01*
X148376199Y-75149968D01*
X148474359Y-75176162D01*
X148591746Y-75184893D01*
X148661596Y-75184893D01*
X148661596Y-75516681D01*
X148856859Y-75516681D01*
X148856859Y-75024556D01*
X148985446Y-75024556D01*
X148991201Y-75143767D01*
X149008465Y-75247401D01*
X149037238Y-75335458D01*
X149077521Y-75407937D01*
X149147371Y-75479816D01*
X149234154Y-75522943D01*
X149337871Y-75537318D01*
X149444145Y-75522943D01*
X149532252Y-75479816D01*
X149602190Y-75407937D01*
X149642125Y-75335458D01*
X149670651Y-75247401D01*
X149687766Y-75143767D01*
X149693471Y-75024556D01*
X149687617Y-74905345D01*
X149670055Y-74801711D01*
X149640786Y-74713654D01*
X149599809Y-74641175D01*
X149529253Y-74569296D01*
X149442470Y-74526169D01*
X149339459Y-74511793D01*
X149233272Y-74526169D01*
X149145431Y-74569296D01*
X149075934Y-74641175D01*
X149036345Y-74713654D01*
X149008068Y-74801711D01*
X148991101Y-74905345D01*
X148985446Y-75024556D01*
X148856859Y-75024556D01*
X148856859Y-74546718D01*
X148792565Y-74535606D01*
X148720334Y-74528462D01*
X148648896Y-74524493D01*
X148586984Y-74522906D01*
X148471449Y-74531461D01*
X148374611Y-74557125D01*
X148296471Y-74599900D01*
X148239145Y-74662077D01*
X148204749Y-74745950D01*
X148193284Y-74851518D01*
X147850384Y-74851518D01*
X147850384Y-74695943D01*
X148109146Y-74695943D01*
X148109146Y-74534018D01*
X147394771Y-74534018D01*
X147394771Y-74695943D01*
X147184863Y-74695943D01*
X147107434Y-74653081D01*
X147023296Y-74595931D01*
X146955033Y-74534018D01*
X146821683Y-74534018D01*
X146821683Y-75354756D01*
X146626421Y-75354756D01*
X146626421Y-75516681D01*
X146279816Y-75516681D01*
X146351431Y-75480874D01*
X146418459Y-75410318D01*
X146456658Y-75338484D01*
X146483943Y-75249981D01*
X146500314Y-75144809D01*
X146505771Y-75022968D01*
X146500215Y-74902517D01*
X146483546Y-74798337D01*
X146455765Y-74710429D01*
X146416871Y-74638793D01*
X146349314Y-74568238D01*
X146265177Y-74525905D01*
X146164458Y-74511793D01*
X146062153Y-74525816D01*
X145977486Y-74567885D01*
X145910458Y-74638000D01*
X145872259Y-74709388D01*
X145844974Y-74797345D01*
X145828603Y-74901872D01*
X145823146Y-75022968D01*
X145429446Y-75022968D01*
X145429446Y-74805481D01*
X145531046Y-74861837D01*
X145627883Y-74900731D01*
X145691383Y-74738806D01*
X145608833Y-74702293D01*
X145519933Y-74653081D01*
X145435796Y-74595931D01*
X145367533Y-74534018D01*
X145234184Y-74534018D01*
X145234184Y-75354756D01*
X145038921Y-75354756D01*
X145038921Y-75516681D01*
X144024287Y-75516681D01*
X144006854Y-75493175D01*
X143964299Y-75422175D01*
X143928907Y-75347346D01*
X143901021Y-75269409D01*
X143880908Y-75189113D01*
X143868762Y-75107233D01*
X143864700Y-75024556D01*
X143868762Y-74941879D01*
X143880908Y-74859999D01*
X143901021Y-74779703D01*
X143928907Y-74701766D01*
X143964299Y-74626937D01*
X144006854Y-74555937D01*
X144056164Y-74489451D01*
X144111753Y-74428117D01*
X144173086Y-74372528D01*
X144239573Y-74323218D01*
X144310573Y-74280663D01*
X144385402Y-74245271D01*
X144463339Y-74217385D01*
X144543635Y-74197272D01*
X144625515Y-74185126D01*
X144708192Y-74181064D01*
X150024200Y-74181064D01*
X150106877Y-74185126D01*
X150188757Y-74197272D01*
X150269053Y-74217385D01*
X150346990Y-74245271D01*
X150421819Y-74280663D01*
X150492819Y-74323218D01*
X150559306Y-74372528D01*
X150620639Y-74428117D01*
X150676228Y-74489451D01*
X150725538Y-74555937D01*
X150768093Y-74626937D01*
X150803485Y-74701766D01*
X150831371Y-74779703D01*
X150851484Y-74859999D01*
X150863630Y-74941879D01*
X150867692Y-75024556D01*
X150863630Y-75107233D01*
X150851484Y-75189113D01*
X150831371Y-75269409D01*
X150803485Y-75347346D01*
X150768093Y-75422175D01*
X150725538Y-75493175D01*
X150676228Y-75559661D01*
X150620639Y-75620995D01*
X150559306Y-75676584D01*
X150492819Y-75725894D01*
X150421819Y-75768449D01*
X150346990Y-75803841D01*
X150269053Y-75831727D01*
X150188757Y-75851840D01*
X150106877Y-75863986D01*
X150024200Y-75868048D01*
X144708192Y-75868048D01*
X144625515Y-75863986D01*
G37*
G36*
X146041427Y-75280937D02*
G01*
X146018056Y-75213116D01*
X146004033Y-75127126D01*
X145999358Y-75022968D01*
X146000077Y-75007093D01*
X146075558Y-75007093D01*
X146100165Y-75080912D01*
X146162871Y-75111868D01*
X146227958Y-75080912D01*
X146251771Y-75007093D01*
X146227958Y-74932481D01*
X146162871Y-74900731D01*
X146100165Y-74932481D01*
X146075558Y-75007093D01*
X146000077Y-75007093D01*
X146004033Y-74919693D01*
X146018056Y-74834232D01*
X146041427Y-74766587D01*
X146093219Y-74700508D01*
X146164458Y-74678481D01*
X146234705Y-74700508D01*
X146286696Y-74766587D01*
X146310508Y-74834232D01*
X146324796Y-74919693D01*
X146329559Y-75022968D01*
X146324796Y-75127126D01*
X146310508Y-75213116D01*
X146286696Y-75280937D01*
X146234705Y-75347017D01*
X146164458Y-75369043D01*
X146162871Y-75368553D01*
X146093219Y-75347017D01*
X146041427Y-75280937D01*
G37*
G36*
X149420421Y-74708643D02*
G01*
X149467252Y-74782462D01*
X149489477Y-74891206D01*
X149493644Y-74955500D01*
X149495034Y-75024556D01*
X149493644Y-75093811D01*
X149489477Y-75158700D01*
X149467252Y-75267443D01*
X149420421Y-75340468D01*
X149339459Y-75367456D01*
X149259290Y-75340468D01*
X149211665Y-75266650D01*
X149189440Y-75157906D01*
X149185273Y-75093612D01*
X149183884Y-75024556D01*
X149185273Y-74955301D01*
X149189440Y-74890412D01*
X149211665Y-74781668D01*
X149258496Y-74708643D01*
X149339459Y-74681656D01*
X149420421Y-74708643D01*
G37*
G36*
X148613177Y-74693562D02*
G01*
X148661596Y-74697531D01*
X148661596Y-75015031D01*
X148582221Y-75015031D01*
X148500068Y-75005704D01*
X148440934Y-74977725D01*
X148405215Y-74927123D01*
X148393308Y-74849931D01*
X148405016Y-74776708D01*
X148440140Y-74728487D01*
X148494710Y-74701698D01*
X148564759Y-74692768D01*
X148613177Y-74693562D01*
G37*
D10*
%TO.C,U1*%
X149585000Y-86430000D02*
X145085000Y-86430000D01*
X145085000Y-76150000D02*
X146335000Y-76150000D01*
X145085000Y-86430000D02*
X145085000Y-76150000D01*
X149585000Y-76150000D02*
X149585000Y-86430000D01*
X148335000Y-76150000D02*
X149585000Y-76150000D01*
X146335000Y-76150000D02*
G75*
G03*
X148335000Y-76150000I1000000J0D01*
G01*
%TD*%
M02*
