%TF.GenerationSoftware,KiCad,Pcbnew,(6.0.0-0)*%
%TF.CreationDate,2022-10-16T11:18:23-07:00*%
%TF.ProjectId,refresh rate reader,72656672-6573-4682-9072-617465207265,rev?*%
%TF.SameCoordinates,Original*%
%TF.FileFunction,Copper,L1,Top*%
%TF.FilePolarity,Positive*%
%FSLAX46Y46*%
G04 Gerber Fmt 4.6, Leading zero omitted, Abs format (unit mm)*
G04 Created by KiCad (PCBNEW (6.0.0-0)) date 2022-10-16 11:18:23*
%MOMM*%
%LPD*%
G01*
G04 APERTURE LIST*
%TA.AperFunction,ComponentPad*%
%ADD10R,1.700000X1.700000*%
%TD*%
%TA.AperFunction,ComponentPad*%
%ADD11O,1.700000X1.700000*%
%TD*%
%TA.AperFunction,ComponentPad*%
%ADD12C,1.600000*%
%TD*%
%TA.AperFunction,ComponentPad*%
%ADD13O,1.600000X1.600000*%
%TD*%
%TA.AperFunction,ComponentPad*%
%ADD14R,2.400000X1.600000*%
%TD*%
%TA.AperFunction,ComponentPad*%
%ADD15O,2.400000X1.600000*%
%TD*%
%TA.AperFunction,ComponentPad*%
%ADD16R,1.600000X1.600000*%
%TD*%
%TA.AperFunction,Conductor*%
%ADD17C,0.250000*%
%TD*%
G04 APERTURE END LIST*
D10*
%TO.P,J1,1,Pin_1*%
%TO.N,GND*%
X164935000Y-64885000D03*
D11*
%TO.P,J1,2,Pin_2*%
%TO.N,+5V*%
X164935000Y-67425000D03*
%TO.P,J1,3,Pin_3*%
%TO.N,/SCK*%
X164935000Y-69965000D03*
%TO.P,J1,4,Pin_4*%
%TO.N,/SDA*%
X164935000Y-72505000D03*
%TD*%
D12*
%TO.P,R2,1*%
%TO.N,Net-(R1-Pad2)*%
X154940000Y-101600000D03*
D13*
%TO.P,R2,2*%
%TO.N,GND*%
X154940000Y-91440000D03*
%TD*%
D12*
%TO.P,R3,1*%
%TO.N,+5V*%
X161050000Y-101600000D03*
D13*
%TO.P,R3,2*%
%TO.N,OPT_OUT*%
X161050000Y-91440000D03*
%TD*%
D11*
%TO.P,J2,3,Pin_3*%
%TO.N,+5V*%
X127000000Y-123224169D03*
%TO.P,J2,2,Pin_2*%
%TO.N,OPT_OUT*%
X127000000Y-120684169D03*
D10*
%TO.P,J2,1,Pin_1*%
%TO.N,GND*%
X127000000Y-118144169D03*
%TD*%
D14*
%TO.P,U2,1*%
%TO.N,OPT_OUT*%
X134620000Y-92720000D03*
D15*
%TO.P,U2,2,-*%
%TO.N,Net-(R1-Pad2)*%
X134620000Y-95260000D03*
%TO.P,U2,3,+*%
%TO.N,Net-(U1-Pad4)*%
X134620000Y-97800000D03*
%TO.P,U2,4,V-*%
%TO.N,GND*%
X134620000Y-100340000D03*
%TO.P,U2,5*%
%TO.N,N/C*%
X142240000Y-100340000D03*
%TO.P,U2,6*%
X142240000Y-97800000D03*
%TO.P,U2,7*%
X142240000Y-95260000D03*
%TO.P,U2,8,V+*%
%TO.N,+5V*%
X142240000Y-92720000D03*
%TD*%
D16*
%TO.P,A1,1,D1/TX*%
%TO.N,unconnected-(A1-Pad1)*%
X139710000Y-110490000D03*
D13*
%TO.P,A1,2,D0/RX*%
%TO.N,unconnected-(A1-Pad2)*%
X139710000Y-113030000D03*
%TO.P,A1,3,~{RESET}*%
%TO.N,unconnected-(A1-Pad3)*%
X139710000Y-115570000D03*
%TO.P,A1,4,GND*%
%TO.N,GND*%
X139710000Y-118110000D03*
%TO.P,A1,5,D2*%
%TO.N,unconnected-(A1-Pad5)*%
X139710000Y-120650000D03*
%TO.P,A1,6,D3*%
%TO.N,unconnected-(A1-Pad6)*%
X139710000Y-123190000D03*
%TO.P,A1,7,D4*%
%TO.N,unconnected-(A1-Pad7)*%
X139710000Y-125730000D03*
%TO.P,A1,8,D5*%
%TO.N,unconnected-(A1-Pad8)*%
X139710000Y-128270000D03*
%TO.P,A1,9,D6*%
%TO.N,unconnected-(A1-Pad9)*%
X139710000Y-130810000D03*
%TO.P,A1,10,D7*%
%TO.N,unconnected-(A1-Pad10)*%
X139710000Y-133350000D03*
%TO.P,A1,11,D8*%
%TO.N,OPT_OUT*%
X139710000Y-135890000D03*
%TO.P,A1,12,D9*%
%TO.N,unconnected-(A1-Pad12)*%
X139710000Y-138430000D03*
%TO.P,A1,13,D10*%
%TO.N,unconnected-(A1-Pad13)*%
X139710000Y-140970000D03*
%TO.P,A1,14,D11*%
%TO.N,unconnected-(A1-Pad14)*%
X139710000Y-143510000D03*
%TO.P,A1,15,D12*%
%TO.N,unconnected-(A1-Pad15)*%
X139710000Y-146050000D03*
%TO.P,A1,16,D13*%
%TO.N,unconnected-(A1-Pad16)*%
X154950000Y-146050000D03*
%TO.P,A1,17,3V3*%
%TO.N,unconnected-(A1-Pad17)*%
X154950000Y-143510000D03*
%TO.P,A1,18,AREF*%
%TO.N,unconnected-(A1-Pad18)*%
X154950000Y-140970000D03*
%TO.P,A1,19,A0*%
%TO.N,unconnected-(A1-Pad19)*%
X154950000Y-138430000D03*
%TO.P,A1,20,A1*%
%TO.N,unconnected-(A1-Pad20)*%
X154950000Y-135890000D03*
%TO.P,A1,21,A2*%
%TO.N,unconnected-(A1-Pad21)*%
X154950000Y-133350000D03*
%TO.P,A1,22,A3*%
%TO.N,unconnected-(A1-Pad22)*%
X154950000Y-130810000D03*
%TO.P,A1,23,A4*%
%TO.N,/SDA*%
X154950000Y-128270000D03*
%TO.P,A1,24,A5*%
%TO.N,/SCK*%
X154950000Y-125730000D03*
%TO.P,A1,25,A6*%
%TO.N,unconnected-(A1-Pad25)*%
X154950000Y-123190000D03*
%TO.P,A1,26,A7*%
%TO.N,unconnected-(A1-Pad26)*%
X154950000Y-120650000D03*
%TO.P,A1,27,+5V*%
%TO.N,+5V*%
X154950000Y-118110000D03*
%TO.P,A1,28,~{RESET}*%
%TO.N,unconnected-(A1-Pad28)*%
X154950000Y-115570000D03*
%TO.P,A1,29,GND*%
%TO.N,GND*%
X154950000Y-113030000D03*
%TO.P,A1,30,VIN*%
%TO.N,unconnected-(A1-Pad30)*%
X154950000Y-110490000D03*
%TD*%
D12*
%TO.P,R1,1*%
%TO.N,+5V*%
X148350000Y-101600000D03*
D13*
%TO.P,R1,2*%
%TO.N,Net-(R1-Pad2)*%
X148350000Y-91440000D03*
%TD*%
D14*
%TO.P,U1,1,1*%
%TO.N,+5V*%
X151145000Y-77480000D03*
D15*
%TO.P,U1,2,2*%
%TO.N,unconnected-(U1-Pad2)*%
X151145000Y-80020000D03*
%TO.P,U1,3,3*%
%TO.N,GND*%
X151145000Y-82560000D03*
%TO.P,U1,4,4*%
%TO.N,Net-(U1-Pad4)*%
X151145000Y-85100000D03*
%TO.P,U1,5,5*%
X143525000Y-85100000D03*
%TO.P,U1,6*%
%TO.N,N/C*%
X143525000Y-82560000D03*
%TO.P,U1,7*%
X143525000Y-80020000D03*
%TO.P,U1,8,8*%
%TO.N,GND*%
X143525000Y-77480000D03*
%TD*%
D17*
%TO.N,OPT_OUT*%
X138430000Y-132114169D02*
X127000000Y-120684169D01*
%TO.N,+5V*%
X151145000Y-77480000D02*
X150020480Y-78604520D01*
X125825489Y-97594054D02*
X125825489Y-122049658D01*
X150020480Y-78604520D02*
X142950169Y-78604520D01*
X142000480Y-84059520D02*
X141409520Y-84650480D01*
X141409520Y-84650480D02*
X138769063Y-84650480D01*
X142950169Y-78604520D02*
X142000480Y-79554209D01*
X138769063Y-84650480D02*
X125825489Y-97594054D01*
X142000480Y-79554209D02*
X142000480Y-84059520D01*
X125825489Y-122049658D02*
X127000000Y-123224169D01*
%TO.N,Net-(U1-Pad4)*%
X134620000Y-97800000D02*
X132080000Y-95260000D01*
X132080000Y-95260000D02*
X132080000Y-91975261D01*
X132080000Y-91975261D02*
X138955261Y-85100000D01*
X138955261Y-85100000D02*
X143525000Y-85100000D01*
%TO.N,Net-(R1-Pad2)*%
X134620000Y-95260000D02*
X133095489Y-93735489D01*
X133095489Y-93735489D02*
X133095489Y-91595489D01*
X133095489Y-91595489D02*
X135790978Y-88900000D01*
X135790978Y-88900000D02*
X145810000Y-88900000D01*
X145810000Y-88900000D02*
X148350000Y-91440000D01*
%TO.N,OPT_OUT*%
X161050000Y-91440000D02*
X162174511Y-92564511D01*
X162174511Y-92564511D02*
X162174511Y-102065789D01*
X162174511Y-102065789D02*
X161066269Y-103174031D01*
X161066269Y-103174031D02*
X145015658Y-103174031D01*
X145015658Y-103174031D02*
X144049689Y-104140000D01*
%TO.N,+5V*%
X154950000Y-118110000D02*
X163310969Y-109749031D01*
X163310969Y-69330969D02*
X163170000Y-69190000D01*
X163310969Y-109749031D02*
X163310969Y-69330969D01*
%TO.N,/SDA*%
X164935000Y-72505000D02*
X164210009Y-73229991D01*
X164210009Y-73229991D02*
X164210009Y-119009991D01*
X164210009Y-119009991D02*
X154950000Y-128270000D01*
%TO.N,OPT_OUT*%
X138430000Y-132114169D02*
X138430000Y-134610000D01*
X138430000Y-134610000D02*
X139710000Y-135890000D01*
%TO.N,/SCK*%
X163760489Y-71139511D02*
X163760489Y-116919511D01*
X164935000Y-69965000D02*
X163760489Y-71139511D01*
X163760489Y-116919511D02*
X154950000Y-125730000D01*
%TO.N,+5V*%
X156820000Y-75540000D02*
X154880000Y-77480000D01*
X154880000Y-77480000D02*
X151145000Y-77480000D01*
X156820000Y-75540000D02*
X156820000Y-97370000D01*
X156820000Y-97370000D02*
X161050000Y-101600000D01*
X164935000Y-67425000D02*
X163170000Y-69190000D01*
X142240000Y-92720000D02*
X148350000Y-98830000D01*
X148350000Y-98830000D02*
X148350000Y-101600000D01*
X148350000Y-101600000D02*
X149474511Y-102724511D01*
X149474511Y-102724511D02*
X159925489Y-102724511D01*
X159925489Y-102724511D02*
X161050000Y-101600000D01*
X163170000Y-69190000D02*
X156820000Y-75540000D01*
%TO.N,Net-(U1-Pad4)*%
X143525000Y-85100000D02*
X151145000Y-85100000D01*
%TO.N,Net-(R1-Pad2)*%
X154940000Y-101600000D02*
X154940000Y-98030000D01*
X154940000Y-98030000D02*
X148350000Y-91440000D01*
%TO.N,OPT_OUT*%
X144049689Y-104140000D02*
X137160000Y-97250311D01*
X140834511Y-107355178D02*
X144049689Y-104140000D01*
X137160000Y-97250311D02*
X137160000Y-95260000D01*
X140834511Y-134765489D02*
X140834511Y-107355178D01*
X139710000Y-135890000D02*
X140834511Y-134765489D01*
X137160000Y-95260000D02*
X134620000Y-92720000D01*
%TD*%
M02*
